<?xml version="1.0" ?><svg height="18px" version="1.1" viewBox="0 0 20 18" width="20px" xmlns="http://www.w3.org/2000/svg" xmlns:xlink="http://www.w3.org/1999/xlink"><title/><g fill="none" fill-rule="evenodd" id="Icons" stroke="none" stroke-linecap="round" stroke-linejoin="round" stroke-width="1"><g id="Group" stroke="#000000" stroke-width="2" transform="translate(-2.000000, -3.000000)"><g id="Shape"><path d="M8.36175443,12.8862465 C10.4229153,14.6566485 11.968786,15.9844499 12.9993665,16.8696509 C13.7621344,17.5248184 14.9062861,18.5075697 16.4318219,19.8179048 C16.6217736,19.9850623 16.885687,20.0398976 17.1265047,19.9622438 C17.3673225,19.88459 17.5494886,19.6859125 17.6060094,19.4392778 L20.9818371,4.87839281 C21.0413193,4.61883082 20.952262,4.34766653 20.7504684,4.17391416 C20.5486747,4.00016178 20.2672916,3.95236213 20.0194414,4.04973174 L3.45547869,10.5570017 C3.15897876,10.6734844 2.97468061,10.9714041 3.00282656,11.2887182 C3.03097251,11.6060323 3.26483201,11.8668612 3.57720562,11.9293364 L8.36175443,12.8862465 Z"/><line x1="8.36175443" x2="20.577817" y1="12.8862465" y2="4.06353439"/><path d="M12.3921615,16.4330047 L9.58745571,19.2377106 C9.38210968,19.4430563 9.07328625,19.5044853 8.80498871,19.3933534 C8.53669116,19.2822216 8.36175443,19.0204143 8.36175443,18.7300114 L8.36175443,12.8862501"/></g></g></g></svg>